<?xml version="1.0" encoding="utf-8"?>
<!-- Uploaded to: SVG Repo, www.svgrepo.com, Generator: SVG Repo Mixer Tools -->
<svg width="800px" height="800px" viewBox="0 0 1024 1024" fill="#000000" class="icon"  version="1.1" xmlns="http://www.w3.org/2000/svg"><path d="M232.016 448.004c-4.42 0-8-3.578-8-8V168.022c0-4.422 3.578-8 8-8 4.422 0 8 3.578 8 8v271.982c0 4.422-3.578 8-8 8z" fill="" /><path d="M536 448.004H232.016c-4.42 0-8-3.578-8-8 0-4.42 3.578-8 8-8H536c4.422 0 8 3.578 8 8 0 4.422-3.578 8-8 8zM264.014 384.008a8 8 0 0 1-5.656-13.656l95.994-95.994a8 8 0 1 1 11.312 11.312l-95.994 95.994a7.974 7.974 0 0 1-5.656 2.344z" fill="" /><path d="M408.006 336.01a7.976 7.976 0 0 1-5.656-2.344l-47.998-47.998a8 8 0 1 1 11.312-11.312l47.998 47.998a8 8 0 0 1-5.656 13.656z" fill="" /><path d="M408.006 336.01a8 8 0 0 1-5.656-13.656l127.994-127.992a8 8 0 1 1 11.312 11.312l-127.994 127.992a7.964 7.964 0 0 1-5.656 2.344z" fill="" /><path d="M536 240.016c-4.422 0-8-3.578-8-8V200.02c0-4.422 3.578-8 8-8s8 3.578 8 8v31.998a7.994 7.994 0 0 1-8 7.998z" fill="" /><path d="M536 208.018h-32c-4.422 0-8-3.578-8-8 0-4.422 3.578-8 8-8h32c4.422 0 8 3.578 8 8 0 4.422-3.578 8-8 8zM624.008 80.026h-224a8.002 8.002 0 0 1-6.656-3.562l-31.998-47.998a7.992 7.992 0 0 1 2.218-11.092 7.99 7.99 0 0 1 11.094 2.218l29.624 44.434h216.408l45.64-45.654a8 8 0 0 1 11.308 11.312l-47.98 47.998a8.004 8.004 0 0 1-5.658 2.344zM352.01 64.028H168.02c-4.42 0-8-3.578-8-8 0-4.42 3.578-8 8-8h183.99c4.42 0 8 3.578 8 8a7.998 7.998 0 0 1-8 8zM855.98 64.028h-183.988c-4.422 0-8-3.578-8-8 0-4.42 3.578-8 8-8h183.988c4.422 0 8 3.578 8 8 0 4.422-3.578 8-8 8z" fill="" /><path d="M575.996 48.028h-127.992c-4.42 0-8-3.578-8-8 0-4.422 3.578-8 8-8h127.992c4.422 0 8 3.578 8 8 0 4.422-3.578 8-8 8zM823.98 879.976h-63.996c-4.422 0-8-3.578-8-7.998 0-4.422 3.578-8 8-8h63.996c4.422 0 8 3.578 8 8a7.994 7.994 0 0 1-8 7.998z" fill="" /><path d="M759.984 943.972c-4.422 0-8-3.578-8-7.998v-63.996c0-4.422 3.578-8 8-8s8 3.578 8 8v63.996a7.994 7.994 0 0 1-8 7.998zM384.008 863.978c-79.394 0-143.992-64.59-143.992-143.99 0-79.402 64.598-143.992 143.992-143.992S528 640.586 528 719.988c0 79.4-64.598 143.99-143.992 143.99z m0-271.982c-70.574 0-127.992 57.418-127.992 127.992 0 70.572 57.418 127.992 127.992 127.992S512 790.56 512 719.988c0-70.574-57.418-127.992-127.992-127.992z" fill="" /><path d="M384.008 895.976c-79.394 0-143.992-64.59-143.992-143.992a7.994 7.994 0 0 1 8-7.998c4.42 0 8 3.578 8 7.998 0 70.574 57.418 127.992 127.992 127.992S512 822.558 512 751.984c0-4.42 3.578-7.998 8-7.998s8 3.578 8 7.998c0 79.402-64.598 143.992-143.992 143.992z" fill="" /><path d="M248.016 759.984c-4.422 0-8-3.578-8-8v-31.996c0-4.422 3.578-8 8-8 4.42 0 8 3.578 8 8v31.996c0 4.422-3.578 8-8 8zM520 759.984c-4.422 0-8-3.578-8-8v-31.996c0-4.422 3.578-8 8-8s8 3.578 8 8v31.996c0 4.422-3.578 8-8 8zM384.008 783.984c-35.288 0-63.996-28.704-63.996-63.996 0-35.296 28.708-63.996 63.996-63.996s63.996 28.7 63.996 63.996c0 35.294-28.71 63.996-63.996 63.996z m0-111.994c-26.468 0-47.998 21.53-47.998 47.998 0 26.466 21.53 47.996 47.998 47.996s47.998-21.53 47.998-47.996c-0.002-26.468-21.53-47.998-47.998-47.998z" fill="" /><path d="M437.692 743.986a8.018 8.018 0 0 1-7.672-5.718c-6-20.186-24.92-34.28-46.012-34.28s-40.012 14.094-46.012 34.28c-1.266 4.234-5.672 6.624-9.954 5.39a8.012 8.012 0 0 1-5.39-9.954c8.006-26.92 33.232-45.716 61.356-45.716s53.348 18.796 61.356 45.716a8.012 8.012 0 0 1-5.39 9.954 8.336 8.336 0 0 1-2.282 0.328zM343.932 687.91a7.976 7.976 0 0 1-5.656-2.344l-56.074-56.074a7.996 7.996 0 1 1 11.31-11.31l56.076 56.074a7.996 7.996 0 0 1-5.656 13.654zM384.008 863.978c-4.42 0-8-3.578-8-8v-79.994c0-4.422 3.578-8 8-8s8 3.578 8 8v79.994a7.998 7.998 0 0 1-8 8zM791.984 671.99h-191.988c-4.422 0-8-3.578-8-8a7.994 7.994 0 0 1 8-7.998h191.988c4.422 0 8 3.578 8 7.998 0 4.422-3.578 8-8 8zM791.984 719.988h-191.988c-4.422 0-8-3.578-8-8s3.578-8 8-8h191.988c4.422 0 8 3.578 8 8s-3.578 8-8 8zM791.984 767.984h-191.988c-4.422 0-8-3.578-8-8s3.578-8 8-8h191.988c4.422 0 8 3.578 8 8s-3.578 8-8 8z" fill="" /><path d="M679.988 815.98h-79.992c-4.422 0-8-3.578-8-7.998 0-4.422 3.578-8 8-8h79.992c4.422 0 8 3.578 8 8a7.994 7.994 0 0 1-8 7.998z" fill="" /><path d="M791.984 256.016h-191.988c-4.422 0-8-3.578-8-8 0-4.42 3.578-8 8-8h191.988c4.422 0 8 3.578 8 8 0 4.422-3.578 8-8 8z" fill="" /><path d="M791.984 304.012h-191.988c-4.422 0-8-3.578-8-8 0-4.422 3.578-8 8-8h191.988c4.422 0 8 3.578 8 8 0 4.422-3.578 8-8 8z" fill="" /><path d="M791.984 352.01h-191.988c-4.422 0-8-3.578-8-8 0-4.42 3.578-8 8-8h191.988c4.422 0 8 3.578 8 8 0 4.422-3.578 8-8 8z" fill="" /><path d="M679.988 400.006h-79.992c-4.422 0-8-3.578-8-8 0-4.422 3.578-8 8-8h79.992c4.422 0 8 3.578 8 8 0 4.422-3.578 8-8 8z" fill="" /><path d="M168.02 975.972c-4.42 0-8-3.578-8-8V56.028c0-4.42 3.578-8 8-8 4.422 0 8 3.578 8 8v911.946a7.994 7.994 0 0 1-8 7.998z" fill="" /><path d="M855.98 895.976c-4.422 0-8-3.578-8-8V56.028c0-4.42 3.578-8 8-8s8 3.578 8 8v831.95a7.994 7.994 0 0 1-8 7.998z" fill="" /><path d="M775.984 975.972a8 8 0 0 1-5.656-13.656l79.996-79.996a8 8 0 1 1 11.312 11.312l-79.996 79.996a7.964 7.964 0 0 1-5.656 2.344z" fill="" /><path d="M775.984 975.972H168.02c-4.42 0-8-3.578-8-8s3.578-8 8-8h607.964c4.422 0 8 3.578 8 8s-3.578 8-8 8z" fill="" /><path d="M903.976 1023.968c-4.422 0-8-3.578-8-8V8.032c0-4.422 3.578-8 8-8s8 3.578 8 8v1007.938a7.994 7.994 0 0 1-8 7.998z" fill="" /><path d="M903.976 1023.968H120.024c-4.422 0-8-3.578-8-8s3.578-8 8-8h783.952c4.422 0 8 3.578 8 8s-3.578 8-8 8z" fill="" /><path d="M120.024 1023.968c-4.422 0-8-3.578-8-8V8.032c0-4.422 3.578-8 8-8 4.42 0 8 3.578 8 8v1007.938a7.994 7.994 0 0 1-8 7.998z" fill="" /><path d="M903.976 16.03H120.024c-4.422 0-8-3.578-8-8 0-4.422 3.578-8 8-8h783.952c4.422 0 8 3.578 8 8 0 4.422-3.578 8-8 8z" fill="" /><path d="M791.984 528H232.008c-4.42 0-8-3.578-8-8s3.578-8 8-8h559.976c4.422 0 8 3.578 8 8s-3.578 8-8 8z" fill="" /></svg>